<?xml version="1.0" encoding="UTF-8" standalone="no"?>
<!DOCTYPE svg PUBLIC "-//W3C//DTD SVG 1.1//EN"
 "http://www.w3.org/Graphics/SVG/1.1/DTD/svg11.dtd">
<!-- Generated by graphviz version 2.40.1 (20161225.0304)
 -->
<!-- Title: dependencies Pages: 1 -->
<svg width="504pt" height="284pt"
 viewBox="0.00 0.00 504.00 284.00" xmlns="http://www.w3.org/2000/svg" xmlns:xlink="http://www.w3.org/1999/xlink">
<g id="graph0" class="graph" transform="scale(1 1) rotate(0) translate(4 280)">
<title>dependencies</title>
<polygon fill="#ffffff" stroke="transparent" points="-4,4 -4,-280 500,-280 500,4 -4,4"/>
<text text-anchor="start" x="227.0091" y="-42.4" font-family="sans-serif" font-weight="bold" font-size="14.00" fill="#000000">Legend</text>
<polygon fill="#ffffb3" stroke="transparent" points="14,-10 14,-30 34,-30 34,-10 14,-10"/>
<text text-anchor="start" x="37.629" y="-15.4" font-family="sans-serif" font-size="14.00" fill="#000000"> &#160;Declarations</text>
<polygon fill="#8dd3c7" stroke="transparent" points="127,-10 127,-30 147,-30 147,-10 127,-10"/>
<text text-anchor="start" x="150.7251" y="-15.4" font-family="sans-serif" font-size="14.00" fill="#000000"> &#160;Module</text>
<polygon fill="#80b1d3" stroke="transparent" points="213,-10 213,-30 233,-30 233,-10 213,-10"/>
<text text-anchor="start" x="236.7812" y="-15.4" font-family="sans-serif" font-size="14.00" fill="#000000"> &#160;Bootstrap</text>
<polygon fill="#fdb462" stroke="transparent" points="310,-10 310,-30 330,-30 330,-10 310,-10"/>
<text text-anchor="start" x="333.6732" y="-15.4" font-family="sans-serif" font-size="14.00" fill="#000000"> &#160;Providers</text>
<polygon fill="#fb8072" stroke="transparent" points="406,-10 406,-30 426,-30 426,-10 406,-10"/>
<text text-anchor="start" x="429.7258" y="-15.4" font-family="sans-serif" font-size="14.00" fill="#000000"> &#160;Exports</text>
<g id="clust1" class="cluster">
<title>cluster_SampleModule</title>
<polygon fill="none" stroke="#000000" stroke-dasharray="1,5" points="31,-70 31,-268 465,-268 465,-70 31,-70"/>
</g>
<g id="clust2" class="cluster">
<title>cluster_SampleModule_declarations</title>
<polygon fill="none" stroke="#000000" points="39,-78 39,-130 457,-130 457,-78 39,-78"/>
</g>
<g id="clust7" class="cluster">
<title>cluster_SampleModule_exports</title>
<polygon fill="none" stroke="#000000" points="106,-208 106,-260 380,-260 380,-208 106,-208"/>
</g>
<!-- DateConversionPipe -->
<g id="node1" class="node">
<title>DateConversionPipe</title>
<polygon fill="#ffffb3" stroke="#000000" points="448.8613,-122 317.1387,-122 317.1387,-86 448.8613,-86 448.8613,-122"/>
<text text-anchor="middle" x="383" y="-99.8" font-family="Times,serif" font-size="14.00" fill="#000000">DateConversionPipe</text>
</g>
<!-- SampleModule -->
<g id="node4" class="node">
<title>SampleModule</title>
<polygon fill="#8dd3c7" stroke="#000000" points="287.5438,-187 284.5438,-191 263.5438,-191 260.5438,-187 186.4562,-187 186.4562,-151 287.5438,-151 287.5438,-187"/>
<text text-anchor="middle" x="237" y="-164.8" font-family="Times,serif" font-size="14.00" fill="#000000">SampleModule</text>
</g>
<!-- DateConversionPipe&#45;&gt;SampleModule -->
<g id="edge1" class="edge">
<title>DateConversionPipe&#45;&gt;SampleModule</title>
<path fill="none" stroke="#000000" d="M344.741,-122.1061C344.741,-141.3391 344.741,-169 344.741,-169 344.741,-169 297.7157,-169 297.7157,-169"/>
<polygon fill="#000000" stroke="#000000" points="297.7157,-165.5001 287.7157,-169 297.7156,-172.5001 297.7157,-165.5001"/>
</g>
<!-- SampleComponent -->
<g id="node2" class="node">
<title>SampleComponent</title>
<polygon fill="#ffffb3" stroke="#000000" points="298.8258,-122 175.1742,-122 175.1742,-86 298.8258,-86 298.8258,-122"/>
<text text-anchor="middle" x="237" y="-99.8" font-family="Times,serif" font-size="14.00" fill="#000000">SampleComponent</text>
</g>
<!-- SampleComponent&#45;&gt;SampleModule -->
<g id="edge2" class="edge">
<title>SampleComponent&#45;&gt;SampleModule</title>
<path fill="none" stroke="#000000" d="M237,-122.1061C237,-122.1061 237,-140.991 237,-140.991"/>
<polygon fill="#000000" stroke="#000000" points="233.5001,-140.9909 237,-150.991 240.5001,-140.991 233.5001,-140.9909"/>
</g>
<!-- SampleDirective -->
<g id="node3" class="node">
<title>SampleDirective</title>
<polygon fill="#ffffb3" stroke="#000000" points="157.0758,-122 46.9242,-122 46.9242,-86 157.0758,-86 157.0758,-122"/>
<text text-anchor="middle" x="102" y="-99.8" font-family="Times,serif" font-size="14.00" fill="#000000">SampleDirective</text>
</g>
<!-- SampleDirective&#45;&gt;SampleModule -->
<g id="edge3" class="edge">
<title>SampleDirective&#45;&gt;SampleModule</title>
<path fill="none" stroke="#000000" d="M135.625,-122.1061C135.625,-141.3391 135.625,-169 135.625,-169 135.625,-169 176.3125,-169 176.3125,-169"/>
<polygon fill="#000000" stroke="#000000" points="176.3125,-172.5001 186.3125,-169 176.3125,-165.5001 176.3125,-172.5001"/>
</g>
<!-- SampleComponent  -->
<g id="node5" class="node">
<title>SampleComponent </title>
<polygon fill="#fb8072" stroke="#000000" points="372.3255,-252 245.6745,-252 245.6745,-216 372.3255,-216 372.3255,-252"/>
<text text-anchor="middle" x="309" y="-229.8" font-family="Times,serif" font-size="14.00" fill="#000000">SampleComponent </text>
</g>
<!-- SampleModule&#45;&gt;SampleComponent  -->
<g id="edge4" class="edge">
<title>SampleModule&#45;&gt;SampleComponent </title>
<path fill="none" stroke="#000000" stroke-dasharray="5,2" d="M266.6794,-187.1061C266.6794,-187.1061 266.6794,-205.991 266.6794,-205.991"/>
<polygon fill="#000000" stroke="#000000" points="263.1794,-205.9909 266.6794,-215.991 270.1794,-205.991 263.1794,-205.9909"/>
</g>
<!-- SampleDirective  -->
<g id="node6" class="node">
<title>SampleDirective </title>
<polygon fill="#fb8072" stroke="#000000" points="227.5766,-252 114.4234,-252 114.4234,-216 227.5766,-216 227.5766,-252"/>
<text text-anchor="middle" x="171" y="-229.8" font-family="Times,serif" font-size="14.00" fill="#000000">SampleDirective </text>
</g>
<!-- SampleModule&#45;&gt;SampleDirective  -->
<g id="edge5" class="edge">
<title>SampleModule&#45;&gt;SampleDirective </title>
<path fill="none" stroke="#000000" stroke-dasharray="5,2" d="M207.0083,-187.1061C207.0083,-187.1061 207.0083,-205.991 207.0083,-205.991"/>
<polygon fill="#000000" stroke="#000000" points="203.5083,-205.9909 207.0083,-215.991 210.5083,-205.991 203.5083,-205.9909"/>
</g>
</g>
</svg>
