<?xml version="1.0" encoding="UTF-8" standalone="no"?>
<!DOCTYPE svg PUBLIC "-//W3C//DTD SVG 1.1//EN"
 "http://www.w3.org/Graphics/SVG/1.1/DTD/svg11.dtd">
<!-- Generated by graphviz version 2.40.1 (20161225.0304)
 -->
<!-- Title: dependencies Pages: 1 -->
<svg width="740pt" height="360pt"
 viewBox="0.00 0.00 740.00 360.00" xmlns="http://www.w3.org/2000/svg" xmlns:xlink="http://www.w3.org/1999/xlink">
<g id="graph0" class="graph" transform="scale(1 1) rotate(0) translate(4 356)">
<title>dependencies</title>
<polygon fill="#ffffff" stroke="transparent" points="-4,4 -4,-356 736,-356 736,4 -4,4"/>
<text text-anchor="start" x="345.0091" y="-42.4" font-family="sans-serif" font-weight="bold" font-size="14.00" fill="#000000">Legend</text>
<polygon fill="#ffffb3" stroke="transparent" points="132,-10 132,-30 152,-30 152,-10 132,-10"/>
<text text-anchor="start" x="155.629" y="-15.4" font-family="sans-serif" font-size="14.00" fill="#000000"> &#160;Declarations</text>
<polygon fill="#8dd3c7" stroke="transparent" points="245,-10 245,-30 265,-30 265,-10 245,-10"/>
<text text-anchor="start" x="268.7251" y="-15.4" font-family="sans-serif" font-size="14.00" fill="#000000"> &#160;Module</text>
<polygon fill="#80b1d3" stroke="transparent" points="331,-10 331,-30 351,-30 351,-10 331,-10"/>
<text text-anchor="start" x="354.7812" y="-15.4" font-family="sans-serif" font-size="14.00" fill="#000000"> &#160;Bootstrap</text>
<polygon fill="#fdb462" stroke="transparent" points="428,-10 428,-30 448,-30 448,-10 428,-10"/>
<text text-anchor="start" x="451.6732" y="-15.4" font-family="sans-serif" font-size="14.00" fill="#000000"> &#160;Providers</text>
<polygon fill="#fb8072" stroke="transparent" points="524,-10 524,-30 544,-30 544,-10 524,-10"/>
<text text-anchor="start" x="547.7258" y="-15.4" font-family="sans-serif" font-size="14.00" fill="#000000"> &#160;Exports</text>
<g id="clust1" class="cluster">
<title>cluster_AppModule</title>
<polygon fill="none" stroke="#000000" stroke-dasharray="1,5" points="294,-146 294,-344 558,-344 558,-146 294,-146"/>
</g>
<g id="clust2" class="cluster">
<title>cluster_AppModule_declarations</title>
<polygon fill="none" stroke="#000000" points="428,-154 428,-206 550,-206 550,-154 428,-154"/>
</g>
<g id="clust4" class="cluster">
<title>cluster_AppModule_imports</title>
<polygon fill="none" stroke="#000000" points="302,-154 302,-206 420,-206 420,-154 302,-154"/>
</g>
<g id="clust6" class="cluster">
<title>cluster_AppModule_bootstrap</title>
<polygon fill="none" stroke="#000000" points="364,-284 364,-336 488,-336 488,-284 364,-284"/>
</g>
<g id="clust8" class="cluster">
<title>cluster_SampleModule</title>
<polygon fill="none" stroke="#000000" stroke-dasharray="1,5" points="8,-70 8,-138 724,-138 724,-70 8,-70"/>
</g>
<g id="clust9" class="cluster">
<title>cluster_SampleModule_declarations</title>
<polygon fill="none" stroke="#000000" points="298,-78 298,-130 716,-130 716,-78 298,-78"/>
</g>
<g id="clust14" class="cluster">
<title>cluster_SampleModule_exports</title>
<polygon fill="none" stroke="#000000" points="16,-78 16,-130 290,-130 290,-78 16,-78"/>
</g>
<!-- AppComponent -->
<g id="node1" class="node">
<title>AppComponent</title>
<polygon fill="#ffffb3" stroke="#000000" points="541.9399,-198 436.0601,-198 436.0601,-162 541.9399,-162 541.9399,-198"/>
<text text-anchor="middle" x="489" y="-175.8" font-family="Times,serif" font-size="14.00" fill="#000000">AppComponent</text>
</g>
<!-- AppModule -->
<g id="node2" class="node">
<title>AppModule</title>
<polygon fill="#8dd3c7" stroke="#000000" points="467.6571,-263 464.6571,-267 443.6571,-267 440.6571,-263 384.3429,-263 384.3429,-227 467.6571,-227 467.6571,-263"/>
<text text-anchor="middle" x="426" y="-240.8" font-family="Times,serif" font-size="14.00" fill="#000000">AppModule</text>
</g>
<!-- AppComponent&#45;&gt;AppModule -->
<g id="edge1" class="edge">
<title>AppComponent&#45;&gt;AppModule</title>
<path fill="none" stroke="#000000" d="M452.0544,-198.1061C452.0544,-198.1061 452.0544,-216.991 452.0544,-216.991"/>
<polygon fill="#000000" stroke="#000000" points="448.5544,-216.9909 452.0544,-226.991 455.5544,-216.991 448.5544,-216.9909"/>
</g>
<!-- AppComponent  -->
<g id="node4" class="node">
<title>AppComponent </title>
<polygon fill="#80b1d3" stroke="#000000" points="480.439,-328 371.561,-328 371.561,-292 480.439,-292 480.439,-328"/>
<text text-anchor="middle" x="426" y="-305.8" font-family="Times,serif" font-size="14.00" fill="#000000">AppComponent </text>
</g>
<!-- AppModule&#45;&gt;AppComponent  -->
<g id="edge3" class="edge">
<title>AppModule&#45;&gt;AppComponent </title>
<path fill="none" stroke="#000000" stroke-dasharray="1,5" d="M426,-263.1061C426,-263.1061 426,-281.991 426,-281.991"/>
<polygon fill="#000000" stroke="#000000" points="422.5001,-281.9909 426,-291.991 429.5001,-281.991 422.5001,-281.9909"/>
</g>
<!-- SampleModule -->
<g id="node3" class="node">
<title>SampleModule</title>
<polygon fill="#8dd3c7" stroke="#000000" points="411.5438,-198 408.5438,-202 387.5438,-202 384.5438,-198 310.4562,-198 310.4562,-162 411.5438,-162 411.5438,-198"/>
<text text-anchor="middle" x="361" y="-175.8" font-family="Times,serif" font-size="14.00" fill="#000000">SampleModule</text>
</g>
<!-- SampleModule&#45;&gt;AppModule -->
<g id="edge2" class="edge">
<title>SampleModule&#45;&gt;AppModule</title>
<path fill="none" stroke="#000000" d="M397.9716,-198.1061C397.9716,-198.1061 397.9716,-216.991 397.9716,-216.991"/>
<polygon fill="#000000" stroke="#000000" points="394.4717,-216.9909 397.9716,-226.991 401.4717,-216.991 394.4717,-216.9909"/>
</g>
<!-- SampleComponent  -->
<g id="node8" class="node">
<title>SampleComponent </title>
<polygon fill="#fb8072" stroke="#000000" points="282.3255,-122 155.6745,-122 155.6745,-86 282.3255,-86 282.3255,-122"/>
<text text-anchor="middle" x="219" y="-99.8" font-family="Times,serif" font-size="14.00" fill="#000000">SampleComponent </text>
</g>
<!-- SampleModule&#45;&gt;SampleComponent  -->
<g id="edge7" class="edge">
<title>SampleModule&#45;&gt;SampleComponent </title>
<path fill="none" stroke="#000000" stroke-dasharray="5,2" d="M310.1358,-174C269.3904,-174 219,-174 219,-174 219,-174 219,-132.0267 219,-132.0267"/>
<polygon fill="#000000" stroke="#000000" points="222.5001,-132.0267 219,-122.0267 215.5001,-132.0268 222.5001,-132.0267"/>
</g>
<!-- SampleDirective  -->
<g id="node9" class="node">
<title>SampleDirective </title>
<polygon fill="#fb8072" stroke="#000000" points="137.5766,-122 24.4234,-122 24.4234,-86 137.5766,-86 137.5766,-122"/>
<text text-anchor="middle" x="81" y="-99.8" font-family="Times,serif" font-size="14.00" fill="#000000">SampleDirective </text>
</g>
<!-- SampleModule&#45;&gt;SampleDirective  -->
<g id="edge8" class="edge">
<title>SampleModule&#45;&gt;SampleDirective </title>
<path fill="none" stroke="#000000" stroke-dasharray="5,2" d="M310.2941,-186C229.6058,-186 81,-186 81,-186 81,-186 81,-132.1985 81,-132.1985"/>
<polygon fill="#000000" stroke="#000000" points="84.5001,-132.1984 81,-122.1985 77.5001,-132.1985 84.5001,-132.1984"/>
</g>
<!-- DateConversionPipe -->
<g id="node5" class="node">
<title>DateConversionPipe</title>
<polygon fill="#ffffb3" stroke="#000000" points="707.8613,-122 576.1387,-122 576.1387,-86 707.8613,-86 707.8613,-122"/>
<text text-anchor="middle" x="642" y="-99.8" font-family="Times,serif" font-size="14.00" fill="#000000">DateConversionPipe</text>
</g>
<!-- DateConversionPipe&#45;&gt;SampleModule -->
<g id="edge4" class="edge">
<title>DateConversionPipe&#45;&gt;SampleModule</title>
<path fill="none" stroke="#000000" d="M642,-122.1097C642,-131.897 642,-142 642,-142 642,-142 377.9238,-142 377.9238,-142 377.9238,-142 377.9238,-151.8903 377.9238,-151.8903"/>
<polygon fill="#000000" stroke="#000000" points="374.4239,-151.8903 377.9238,-161.8903 381.4239,-151.8904 374.4239,-151.8903"/>
</g>
<!-- SampleComponent -->
<g id="node6" class="node">
<title>SampleComponent</title>
<polygon fill="#ffffb3" stroke="#000000" points="557.8258,-122 434.1742,-122 434.1742,-86 557.8258,-86 557.8258,-122"/>
<text text-anchor="middle" x="496" y="-99.8" font-family="Times,serif" font-size="14.00" fill="#000000">SampleComponent</text>
</g>
<!-- SampleComponent&#45;&gt;SampleModule -->
<g id="edge5" class="edge">
<title>SampleComponent&#45;&gt;SampleModule</title>
<path fill="none" stroke="#000000" d="M434.156,-104C428.6982,-104 425.1876,-104 425.1876,-104 425.1876,-104 425.1876,-180 425.1876,-180 425.1876,-180 421.5751,-180 421.5751,-180"/>
<polygon fill="#000000" stroke="#000000" points="421.5751,-176.5001 411.5751,-180 421.575,-183.5001 421.5751,-176.5001"/>
</g>
<!-- SampleDirective -->
<g id="node7" class="node">
<title>SampleDirective</title>
<polygon fill="#ffffb3" stroke="#000000" points="416.0758,-122 305.9242,-122 305.9242,-86 416.0758,-86 416.0758,-122"/>
<text text-anchor="middle" x="361" y="-99.8" font-family="Times,serif" font-size="14.00" fill="#000000">SampleDirective</text>
</g>
<!-- SampleDirective&#45;&gt;SampleModule -->
<g id="edge6" class="edge">
<title>SampleDirective&#45;&gt;SampleModule</title>
<path fill="none" stroke="#000000" d="M344.0762,-122.0109C344.0762,-122.0109 344.0762,-151.855 344.0762,-151.855"/>
<polygon fill="#000000" stroke="#000000" points="340.5763,-151.8549 344.0762,-161.855 347.5763,-151.855 340.5763,-151.8549"/>
</g>
</g>
</svg>
